<?xml version="1.0" encoding="UTF-8" standalone="no"?>
<svg fill="Black" xmlns:svg="http://www.w3.org/2000/svg" xmlns="http://www.w3.org/2000/svg" version="1.1" x="0px" y="0px" viewBox="0 0 100 100" xml:space="preserve">
  <path d="M48.2,20.6c-1.6,0-3.2,0.1-4.8,0.2c-3.6,9-5.7,18.9-5.7,29.3c0,10.3,2,20.2,5.7,29.3c1.6,0.1,3.2,0.2,4.8,0.2  C74.1,79.4,95,66.2,95,50C95,33.8,74.1,20.6,48.2,20.6z M48.2,74.3c-0.4,0-0.8,0-1.2,0c-2.7-7.8-4.1-15.9-4.1-24.3  c0-8.3,1.4-16.5,4.1-24.3c0.4,0,0.8,0,1.2,0c22.6,0,41.6,11.1,41.6,24.3C89.9,63.2,70.8,74.3,48.2,74.3z" />
  <path d="M 33.159638,34.175002 H 7.9403638 c -1.5832727,0 -2.9403638,1.2 -2.9403638,2.6 0,1.4 1.3570911,2.6 2.9403638,2.6 H 33.159638 c 1.583273,0 2.940362,-1.2 2.940362,-2.6 -0.113089,-1.4 -1.357089,-2.6 -2.940362,-2.6 z" />
  <path d="M 36.14763,20.8 H 8.252363 C 6.5010904,20.8 5,22 5,23.4 5,24.8 6.5010904,26 8.252363,26 H 36.14763 C 37.898904,26 39.4,24.8 39.4,23.4 39.274904,22 37.898904,20.8 36.14763,20.8 Z" />
  <path d="M 31.982546,47.550002 H 7.8174546 c -1.5170909,0 -2.8174546,1.2 -2.8174546,2.6 0,1.4 1.3003637,2.6 2.8174546,2.6 H 31.982546 c 1.517091,0 2.817454,-1.2 2.817454,-2.6 -0.108363,-1.4 -1.300363,-2.6 -2.817454,-2.6 z" />
  <path d="M 33.159636,60.925001 H 7.9403636 c -1.5832727,0 -2.9403636,1.2 -2.9403636,2.6 0,1.4 1.3570909,2.6 2.9403636,2.6 H 33.159636 c 1.583273,0 2.940364,-1.2 2.940364,-2.6 -0.113091,-1.4 -1.357091,-2.6 -2.940364,-2.6 z" />
  <path d="M 36.147636,74.3 H 8.2523636 C 6.5010909,74.3 5,75.5 5,76.9 c 0,1.4 1.5010909,2.6 3.2523636,2.6 H 36.147636 C 37.898909,79.5 39.4,78.3 39.4,76.9 c 0,-1.4 -1.501091,-2.6 -3.252364,-2.6 z" />
</svg>